<svg viewBox="0 0 1024 1176.463" xmlns="http://www.w3.org/2000/svg"><path d="M738.055 746.732l-94.293 54.104V750.09l73.38-41.987c47.47-34.237 78.73-88.405 81.44-149.988l.015-.412-.28-228.134-200.182-115.205c-22.778-12.636-49.95-20.073-78.86-20.073-2.207 0-4.404.043-6.59.13l.314-.01c-2.058-.09-4.47-.14-6.895-.14-28.315 0-55.026 6.865-78.56 19.02l.958-.45-70.3 40.43-44.387-25.63 97.132-55.547c27.945-13.36 60.74-21.164 95.356-21.164 2.24 0 4.475.034 6.7.1l-.326-.01c37.732.253 73.444 8.64 105.553 23.49l-1.582-.656 226.055 130.602-.28 248.968c-1.592 80.105-42.21 150.396-103.57 192.82l-.8.524zM482.048 324.374c8.88-1.435 19.118-2.255 29.547-2.255 32.744 0 63.6 8.08 90.684 22.36l-1.064-.512 86.815 49.984s.12 43.868.12 109.41c-4.52 41.018-20.556 77.62-44.76 107.298l.293-.37.08-192.585zm471.104-83.216L640.762 61.05c-35.72-18.268-77.917-28.974-122.615-28.974-2.05 0-4.092.022-6.13.067l.303-.005c-2.49-.085-5.416-.134-8.354-.134-44.44 0-86.29 11.09-122.935 30.65l1.407-.684L93.08 227.52l440.232 253.05v511.296l289.716-165.393c37.998-24.384 68.763-56.875 90.437-95.188l.7-1.344c19.914-33.874 33.736-73.712 38.844-116.23l.142-1.46zM70.848 393.114l308.59 177.07-.238 52.784-175.552-100.69L93.16 585.06 379 749.81l.2 50.786L72.966 624.448c8.495 50.752 27.97 95.834 55.935 134.353l-.63-.912c20.708 28.937 46.663 52.723 76.655 70.387l1.162.633 283.038 162.954v-485.9l-418-240.05z"/></svg>